<svg width="128" height="128" viewBox="0 0 128 128" fill="none" xmlns="http://www.w3.org/2000/svg">
    <rect width="128" height="128" rx="64" fill="url(#paint0_linear_48_104)"/>
    <mask id="mask0_48_104" style="mask-type:alpha" maskUnits="userSpaceOnUse" x="0" y="0" width="128" height="128">
    <rect width="128" height="128" rx="64" fill="url(#paint1_linear_48_104)"/>
    </mask>
    <g mask="url(#mask0_48_104)">
    <rect x="49.5361" y="83.0015" width="3.59232" height="56.9099" fill="#D9D9D9"/>
    <rect x="56.3428" y="95.4801" width="3.59232" height="56.9099" fill="#D9D9D9"/>
    <rect x="64" y="109" width="4" height="66" fill="#D9D9D9"/>
    <rect x="8.69727" y="49.7253" width="3.59232" height="56.9099" fill="#D9D9D9"/>
    <rect x="1.89062" y="64.0945" width="3.59232" height="56.9099" fill="#D9D9D9"/>
    <rect x="42.9189" y="66.1743" width="3.59232" height="63.7164" fill="#D9D9D9"/>
    <rect x="29.6841" y="38.003" width="3.59232" height="86.7829" fill="#D9D9D9"/>
    <rect x="36.3013" y="53.3176" width="3.59232" height="76.5731" fill="#D9D9D9"/>
    <rect x="15.5034" y="32.8981" width="3.97046" height="74.1152" fill="#D9D9D9"/>
    <rect x="22.499" y="24.0118" width="3.97046" height="92.2659" fill="#D9D9D9"/>
    </g>
    <defs>
    <linearGradient id="paint0_linear_48_104" x1="64" y1="0" x2="64" y2="128" gradientUnits="userSpaceOnUse">
    <stop stop-color="#CD9CF4"/>
    <stop offset="1" stop-color="#A397F3"/>
    </linearGradient>
    <linearGradient id="paint1_linear_48_104" x1="64" y1="0" x2="64" y2="128" gradientUnits="userSpaceOnUse">
    <stop stop-color="#7D24C4"/>
    <stop offset="0.925" stop-color="#2B0BED"/>
    </linearGradient>
    </defs>
    </svg>
    